<mxfile host="app.diagrams.net" agent="Mozilla/5.0 (Macintosh; Intel Mac OS X 10_15_7) AppleWebKit/537.36 (KHTML, like Gecko) Chrome/135.0.0.0 Safari/537.36" version="26.2.15">
  <diagram name="第 1 页" id="jQhSHtOuYVEu6udXE85X">
    <mxGraphModel dx="1346" dy="953" grid="0" gridSize="10" guides="1" tooltips="1" connect="1" arrows="1" fold="1" page="0" pageScale="1" pageWidth="827" pageHeight="1169" math="0" shadow="0">
      <root>
        <mxCell id="0" />
        <mxCell id="1" parent="0" />
        <mxCell id="SXCVJjdXyeFh-uHV0pyZ-12" value="页面" style="shape=umlLifeline;perimeter=lifelinePerimeter;whiteSpace=wrap;html=1;container=1;dropTarget=0;collapsible=0;recursiveResize=0;outlineConnect=0;portConstraint=eastwest;newEdgeStyle={&quot;curved&quot;:0,&quot;rounded&quot;:0};fontSize=20;sketch=1;curveFitting=1;jiggle=2;labelBackgroundColor=none;fillColor=#F2CC8F;strokeColor=#E07A5F;fontColor=#393C56;" parent="1" vertex="1">
          <mxGeometry x="-90" y="-54" width="100" height="961" as="geometry" />
        </mxCell>
        <mxCell id="SXCVJjdXyeFh-uHV0pyZ-14" value="" style="html=1;points=[[0,0,0,0,5],[0,1,0,0,-5],[1,0,0,0,5],[1,1,0,0,-5]];perimeter=orthogonalPerimeter;outlineConnect=0;targetShapes=umlLifeline;portConstraint=eastwest;newEdgeStyle={&quot;curved&quot;:0,&quot;rounded&quot;:0};sketch=1;curveFitting=1;jiggle=2;labelBackgroundColor=none;fillColor=#F2CC8F;strokeColor=#E07A5F;fontColor=#393C56;" parent="SXCVJjdXyeFh-uHV0pyZ-12" vertex="1">
          <mxGeometry x="47" y="106" width="10" height="40" as="geometry" />
        </mxCell>
        <mxCell id="SXCVJjdXyeFh-uHV0pyZ-15" value="1、文件分片&lt;div&gt;2、计算MD5&lt;/div&gt;" style="html=1;align=left;spacingLeft=2;endArrow=block;rounded=0;edgeStyle=orthogonalEdgeStyle;curved=0;rounded=0;fontSize=12;startSize=8;endSize=8;sketch=1;curveFitting=1;jiggle=2;labelBackgroundColor=none;strokeColor=#E07A5F;fontColor=default;" parent="SXCVJjdXyeFh-uHV0pyZ-12" target="SXCVJjdXyeFh-uHV0pyZ-14" edge="1">
          <mxGeometry relative="1" as="geometry">
            <mxPoint x="47" y="89" as="sourcePoint" />
            <Array as="points">
              <mxPoint x="81" y="89" />
              <mxPoint x="81" y="119" />
            </Array>
          </mxGeometry>
        </mxCell>
        <mxCell id="SXCVJjdXyeFh-uHV0pyZ-28" value="" style="html=1;points=[[0,0,0,0,5],[0,1,0,0,-5],[1,0,0,0,5],[1,1,0,0,-5]];perimeter=orthogonalPerimeter;outlineConnect=0;targetShapes=umlLifeline;portConstraint=eastwest;newEdgeStyle={&quot;curved&quot;:0,&quot;rounded&quot;:0};sketch=1;curveFitting=1;jiggle=2;labelBackgroundColor=none;fillColor=#F2CC8F;strokeColor=#E07A5F;fontColor=#393C56;" parent="SXCVJjdXyeFh-uHV0pyZ-12" vertex="1">
          <mxGeometry x="47" y="343" width="10" height="40" as="geometry" />
        </mxCell>
        <mxCell id="SXCVJjdXyeFh-uHV0pyZ-30" style="edgeStyle=none;curved=0;rounded=0;orthogonalLoop=1;jettySize=auto;html=1;fontSize=12;startSize=8;endSize=8;sketch=1;curveFitting=1;jiggle=2;labelBackgroundColor=none;strokeColor=#E07A5F;fontColor=default;" parent="SXCVJjdXyeFh-uHV0pyZ-12" source="SXCVJjdXyeFh-uHV0pyZ-28" target="SXCVJjdXyeFh-uHV0pyZ-12" edge="1">
          <mxGeometry relative="1" as="geometry" />
        </mxCell>
        <mxCell id="SXCVJjdXyeFh-uHV0pyZ-13" value="后台" style="shape=umlLifeline;perimeter=lifelinePerimeter;whiteSpace=wrap;html=1;container=1;dropTarget=0;collapsible=0;recursiveResize=0;outlineConnect=0;portConstraint=eastwest;newEdgeStyle={&quot;curved&quot;:0,&quot;rounded&quot;:0};fontSize=20;sketch=1;curveFitting=1;jiggle=2;labelBackgroundColor=none;fillColor=#F2CC8F;strokeColor=#E07A5F;fontColor=#393C56;" parent="1" vertex="1">
          <mxGeometry x="229" y="-58" width="100" height="967" as="geometry" />
        </mxCell>
        <mxCell id="SXCVJjdXyeFh-uHV0pyZ-27" style="edgeStyle=none;curved=0;rounded=0;orthogonalLoop=1;jettySize=auto;html=1;exitX=0;exitY=1;exitDx=0;exitDy=-5;exitPerimeter=0;fontSize=12;startSize=8;endSize=8;sketch=1;curveFitting=1;jiggle=2;labelBackgroundColor=none;strokeColor=#E07A5F;fontColor=default;" parent="SXCVJjdXyeFh-uHV0pyZ-13" source="SXCVJjdXyeFh-uHV0pyZ-25" target="SXCVJjdXyeFh-uHV0pyZ-13" edge="1">
          <mxGeometry relative="1" as="geometry" />
        </mxCell>
        <mxCell id="SXCVJjdXyeFh-uHV0pyZ-25" value="" style="html=1;points=[[0,0,0,0,5],[0,1,0,0,-5],[1,0,0,0,5],[1,1,0,0,-5]];perimeter=orthogonalPerimeter;outlineConnect=0;targetShapes=umlLifeline;portConstraint=eastwest;newEdgeStyle={&quot;curved&quot;:0,&quot;rounded&quot;:0};sketch=1;curveFitting=1;jiggle=2;labelBackgroundColor=none;fillColor=#F2CC8F;strokeColor=#E07A5F;fontColor=#393C56;" parent="SXCVJjdXyeFh-uHV0pyZ-13" vertex="1">
          <mxGeometry x="50" y="205" width="10" height="50" as="geometry" />
        </mxCell>
        <mxCell id="SXCVJjdXyeFh-uHV0pyZ-26" value="1、查库MD5&lt;div&gt;2.1、未上传，则生成雪花ID；标识状态为&lt;b&gt;上传中&lt;/b&gt;；&lt;/div&gt;&lt;div&gt;2.2、已上传，查询雪花ID；&lt;/div&gt;&lt;div&gt;2.2.1、上传完成；标识状态为&lt;b&gt;上传完成&lt;/b&gt;；&lt;/div&gt;&lt;div&gt;2.2.2、标识状态为上传中，查询已上传ID列表&lt;/div&gt;" style="html=1;align=left;spacingLeft=2;endArrow=block;rounded=0;edgeStyle=orthogonalEdgeStyle;curved=0;rounded=0;fontSize=12;startSize=8;endSize=8;sketch=1;curveFitting=1;jiggle=2;labelBackgroundColor=none;strokeColor=#E07A5F;fontColor=default;" parent="SXCVJjdXyeFh-uHV0pyZ-13" edge="1">
          <mxGeometry x="0.0118" relative="1" as="geometry">
            <mxPoint x="55" y="192" as="sourcePoint" />
            <Array as="points">
              <mxPoint x="85" y="222" />
            </Array>
            <mxPoint x="60" y="222" as="targetPoint" />
            <mxPoint as="offset" />
          </mxGeometry>
        </mxCell>
        <mxCell id="SXCVJjdXyeFh-uHV0pyZ-34" value="" style="html=1;points=[[0,0,0,0,5],[0,1,0,0,-5],[1,0,0,0,5],[1,1,0,0,-5]];perimeter=orthogonalPerimeter;outlineConnect=0;targetShapes=umlLifeline;portConstraint=eastwest;newEdgeStyle={&quot;curved&quot;:0,&quot;rounded&quot;:0};sketch=1;curveFitting=1;jiggle=2;labelBackgroundColor=none;fillColor=#F2CC8F;strokeColor=#E07A5F;fontColor=#393C56;" parent="SXCVJjdXyeFh-uHV0pyZ-13" vertex="1">
          <mxGeometry x="47" y="494" width="10" height="40" as="geometry" />
        </mxCell>
        <mxCell id="SXCVJjdXyeFh-uHV0pyZ-35" value="1、查询临时文件是否存在，不存在则根据文件雪花ID创建文件夹；&lt;div&gt;2、将分片数据存储在上述文件夹中，并以分片ID命名；&lt;/div&gt;" style="html=1;align=left;spacingLeft=2;endArrow=block;rounded=0;edgeStyle=orthogonalEdgeStyle;curved=0;rounded=0;fontSize=12;startSize=8;endSize=8;sketch=1;curveFitting=1;jiggle=2;labelBackgroundColor=none;strokeColor=#E07A5F;fontColor=default;" parent="SXCVJjdXyeFh-uHV0pyZ-13" target="SXCVJjdXyeFh-uHV0pyZ-34" edge="1">
          <mxGeometry relative="1" as="geometry">
            <mxPoint x="52" y="474" as="sourcePoint" />
            <Array as="points">
              <mxPoint x="82" y="504" />
            </Array>
          </mxGeometry>
        </mxCell>
        <mxCell id="SXCVJjdXyeFh-uHV0pyZ-38" value="" style="html=1;points=[[0,0,0,0,5],[0,1,0,0,-5],[1,0,0,0,5],[1,1,0,0,-5]];perimeter=orthogonalPerimeter;outlineConnect=0;targetShapes=umlLifeline;portConstraint=eastwest;newEdgeStyle={&quot;curved&quot;:0,&quot;rounded&quot;:0};sketch=1;curveFitting=1;jiggle=2;labelBackgroundColor=none;fillColor=#F2CC8F;strokeColor=#E07A5F;fontColor=#393C56;" parent="SXCVJjdXyeFh-uHV0pyZ-13" vertex="1">
          <mxGeometry x="45" y="719" width="10" height="40" as="geometry" />
        </mxCell>
        <mxCell id="SXCVJjdXyeFh-uHV0pyZ-39" value="&lt;div&gt;0、校验MD5是否和前端传来文件MD5一致；&lt;/div&gt;1、多线程合并文件分片；&lt;div&gt;2、合并后文件存储NAS或者S3;&lt;br&gt;&lt;div&gt;3、数据库存储文件雪花ID，文件名，文件大小，文件路径；&lt;/div&gt;&lt;div&gt;4、删除临时文件夹；&lt;/div&gt;&lt;/div&gt;&lt;div&gt;5、发送新文件上传完毕消息，通知后续文件处理：元数据、缩略图、是否加密、摘要视频&lt;/div&gt;" style="html=1;align=left;spacingLeft=2;endArrow=block;rounded=0;edgeStyle=orthogonalEdgeStyle;curved=0;rounded=0;fontSize=12;startSize=8;endSize=8;sketch=1;curveFitting=1;jiggle=2;labelBackgroundColor=none;strokeColor=#E07A5F;fontColor=default;" parent="SXCVJjdXyeFh-uHV0pyZ-13" target="SXCVJjdXyeFh-uHV0pyZ-38" edge="1">
          <mxGeometry relative="1" as="geometry">
            <mxPoint x="50" y="699" as="sourcePoint" />
            <Array as="points">
              <mxPoint x="80" y="729" />
            </Array>
          </mxGeometry>
        </mxCell>
        <mxCell id="SXCVJjdXyeFh-uHV0pyZ-23" value="MD5 校验是否上传过" style="html=1;verticalAlign=bottom;endArrow=block;curved=0;rounded=0;fontSize=12;startSize=8;endSize=8;sketch=1;curveFitting=1;jiggle=2;labelBackgroundColor=none;strokeColor=#E07A5F;fontColor=default;" parent="1" edge="1">
          <mxGeometry width="80" relative="1" as="geometry">
            <mxPoint x="-40" y="122" as="sourcePoint" />
            <mxPoint x="279" y="122" as="targetPoint" />
          </mxGeometry>
        </mxCell>
        <mxCell id="SXCVJjdXyeFh-uHV0pyZ-24" value="{状态：上传中,&amp;nbsp; 文件标识：雪花ID， 已上传ID：[]}" style="html=1;verticalAlign=bottom;endArrow=open;dashed=1;endSize=8;curved=0;rounded=0;fontSize=12;sketch=1;curveFitting=1;jiggle=2;labelBackgroundColor=none;strokeColor=#E07A5F;fontColor=default;" parent="1" edge="1">
          <mxGeometry relative="1" as="geometry">
            <mxPoint x="277.5" y="226" as="sourcePoint" />
            <mxPoint x="-41" y="226" as="targetPoint" />
          </mxGeometry>
        </mxCell>
        <mxCell id="SXCVJjdXyeFh-uHV0pyZ-29" value="1、上传完成，页面提示；&lt;div&gt;2、根据已上传分片ID列表，找出剩余待上传分片ID&lt;/div&gt;" style="html=1;align=left;spacingLeft=2;endArrow=block;rounded=0;edgeStyle=orthogonalEdgeStyle;curved=0;rounded=0;fontSize=12;startSize=8;endSize=8;sketch=1;curveFitting=1;jiggle=2;labelBackgroundColor=none;strokeColor=#E07A5F;fontColor=default;" parent="1" target="SXCVJjdXyeFh-uHV0pyZ-28" edge="1">
          <mxGeometry relative="1" as="geometry">
            <mxPoint x="-43" y="267" as="sourcePoint" />
            <Array as="points">
              <mxPoint x="-13" y="297" />
            </Array>
          </mxGeometry>
        </mxCell>
        <mxCell id="SXCVJjdXyeFh-uHV0pyZ-33" value="多线程上传文件分片：{文件雪花ID， 分片ID}" style="html=1;verticalAlign=bottom;endArrow=block;curved=0;rounded=0;fontSize=12;startSize=8;endSize=8;sketch=1;curveFitting=1;jiggle=2;labelBackgroundColor=none;strokeColor=#E07A5F;fontColor=default;" parent="1" target="SXCVJjdXyeFh-uHV0pyZ-13" edge="1">
          <mxGeometry width="80" relative="1" as="geometry">
            <mxPoint x="-39" y="372" as="sourcePoint" />
            <mxPoint x="41" y="372" as="targetPoint" />
          </mxGeometry>
        </mxCell>
        <mxCell id="SXCVJjdXyeFh-uHV0pyZ-36" value="分片ID 上传成功" style="html=1;verticalAlign=bottom;endArrow=open;dashed=1;endSize=8;curved=0;rounded=0;fontSize=12;sketch=1;curveFitting=1;jiggle=2;labelBackgroundColor=none;strokeColor=#E07A5F;fontColor=default;" parent="1" target="SXCVJjdXyeFh-uHV0pyZ-12" edge="1">
          <mxGeometry relative="1" as="geometry">
            <mxPoint x="276" y="530" as="sourcePoint" />
            <mxPoint x="196" y="530" as="targetPoint" />
          </mxGeometry>
        </mxCell>
        <mxCell id="SXCVJjdXyeFh-uHV0pyZ-37" value="全部上传完成；{文件名， 文件雪花ID}" style="html=1;verticalAlign=bottom;endArrow=block;curved=0;rounded=0;fontSize=12;startSize=8;endSize=8;sketch=1;curveFitting=1;jiggle=2;labelBackgroundColor=none;strokeColor=#E07A5F;fontColor=default;" parent="1" target="SXCVJjdXyeFh-uHV0pyZ-13" edge="1">
          <mxGeometry width="80" relative="1" as="geometry">
            <mxPoint x="-39" y="611" as="sourcePoint" />
            <mxPoint x="41" y="611" as="targetPoint" />
          </mxGeometry>
        </mxCell>
        <mxCell id="SXCVJjdXyeFh-uHV0pyZ-40" value="返回上传成功" style="html=1;verticalAlign=bottom;endArrow=open;dashed=1;endSize=8;curved=0;rounded=0;fontSize=12;sketch=1;curveFitting=1;jiggle=2;labelBackgroundColor=none;strokeColor=#E07A5F;fontColor=default;" parent="1" edge="1">
          <mxGeometry relative="1" as="geometry">
            <mxPoint x="277" y="749" as="sourcePoint" />
            <mxPoint x="-44" y="749" as="targetPoint" />
          </mxGeometry>
        </mxCell>
      </root>
    </mxGraphModel>
  </diagram>
</mxfile>
